<svg xmlns="http://www.w3.org/2000/svg" id="export" class="canvas" preserveAspectRatio="xMidYMid meet" style="position: absolute; margin: 0px; touch-action: none; -webkit-tap-highlight-color: rgba(0, 0, 0, 0);" width="164" height="499"><rect id="background" fill="#fff" pointer-events="all" width="164" height="499"/><g id="origin" transform="translate(7.44921875, 7.44921875) scale(1)"><g id="clusters" class="clusters"/><g id="edge-paths" class="edge-paths"><defs><marker id="arrowhead-vee" viewBox="0 0 10 10" refX="9" refY="5" markerUnits="strokeWidth" markerWidth="8" markerHeight="6" orient="auto" style="fill: rgb(0, 0, 0);"><path d="M 0 0 L 10 5 L 0 10 L 4 5 z" style="stroke-width: 1; stroke-dasharray: 1, 0;"/></marker></defs><path class="edge-path" d="M74.4921875,23L74.4921875,26.666666666666668C74.4921875,30.333333333333332,74.4921875,37.666666666666664,74.4921875,45C74.4921875,52.333333333333336,74.4921875,59.666666666666664,74.4921875,63.333333333333336L74.4921875,67" marker-end="url(#arrowhead-vee)" id="edge-Input" style="stroke: rgb(0, 0, 0); stroke-width: 1px; fill: none;"/><path class="edge-path" d="M74.4921875,110L74.4921875,111.66666666666667C74.4921875,113.33333333333333,74.4921875,116.66666666666667,74.4921875,120C74.4921875,123.33333333333333,74.4921875,126.66666666666667,74.4921875,128.33333333333334L74.4921875,130" marker-end="url(#arrowhead-vee)" id="edge-reshape" style="stroke: rgb(0, 0, 0); stroke-width: 1px; fill: none;"/><path class="edge-path" d="M74.4921875,215L74.4921875,216.66666666666666C74.4921875,218.33333333333334,74.4921875,221.66666666666666,74.4921875,225C74.4921875,228.33333333333334,74.4921875,231.66666666666666,74.4921875,233.33333333333334L74.4921875,235" marker-end="url(#arrowhead-vee)" id="edge-conv2d" style="stroke: rgb(0, 0, 0); stroke-width: 1px; fill: none;"/><path class="edge-path" d="M74.4921875,258L74.4921875,259.6666666666667C74.4921875,261.3333333333333,74.4921875,264.6666666666667,74.4921875,268C74.4921875,271.3333333333333,74.4921875,274.6666666666667,74.4921875,276.3333333333333L74.4921875,278" marker-end="url(#arrowhead-vee)" id="edge-max_pooling2d" style="stroke: rgb(0, 0, 0); stroke-width: 1px; fill: none;"/><path class="edge-path" d="M74.4921875,301L74.4921875,302.6666666666667C74.4921875,304.3333333333333,74.4921875,307.6666666666667,74.4921875,311C74.4921875,314.3333333333333,74.4921875,317.6666666666667,74.4921875,319.3333333333333L74.4921875,321" marker-end="url(#arrowhead-vee)" id="edge-flatten" style="stroke: rgb(0, 0, 0); stroke-width: 1px; fill: none;"/><path class="edge-path" d="M74.4921875,378L74.4921875,379.6666666666667C74.4921875,381.3333333333333,74.4921875,384.6666666666667,74.4921875,388C74.4921875,391.3333333333333,74.4921875,394.6666666666667,74.4921875,396.3333333333333L74.4921875,398" marker-end="url(#arrowhead-vee)" id="edge-Dense_Layer_1" style="stroke: rgb(0, 0, 0); stroke-width: 1px; fill: none;"/><path class="edge-path" d="M74.4921875,441L74.4921875,442.6666666666667C74.4921875,444.3333333333333,74.4921875,447.6666666666667,74.4921875,451C74.4921875,454.3333333333333,74.4921875,457.6666666666667,74.4921875,459.3333333333333L74.4921875,461" marker-end="url(#arrowhead-vee)" id="edge-Logit_Probs" style="stroke: rgb(0, 0, 0); stroke-width: 1px; fill: none;"/></g><g id="edge-labels" class="edge-labels"><g class="edge-label" transform="translate(93.546875,45)" style="opacity: 1;"><g transform="translate(-14.0546875,-7)"><text style="font-family: -apple-system, BlinkMacSystemFont, &quot;Segoe WPC&quot;, &quot;Segoe UI&quot;, Ubuntu, &quot;Droid Sans&quot;, sans-serif, &quot;PingFang SC&quot;; font-size: 10px;"><tspan xml:space="preserve" dy="1em" x="1">?×784</tspan></text></g></g></g><g id="nodes" class="nodes"><g id="node-reshape" class="node" transform="translate(74.4921875,88.5)" style="opacity: 1;"><g transform="translate(-54.109375,-21.5)"><g><g class="node-item node-item-type node-item-type-shape" transform="translate(0,0)"><path d="M5,0h98.21875a5,5 0 0 1 5,5v18a0,0 0 0 1 0,0h-108.21875a0,0 0 0 1 0,0v-18a5,5 0 0 1 5,-5z" style="stroke: rgb(0, 0, 0); fill: rgb(108, 79, 71); stroke-width: 0;"/><text x="6" y="16" style="font-family: -apple-system, BlinkMacSystemFont, &quot;Segoe WPC&quot;, &quot;Segoe UI&quot;, Ubuntu, &quot;Droid Sans&quot;, sans-serif, &quot;PingFang SC&quot;; font-size: 11px; text-rendering: geometricprecision; fill: rgb(255, 255, 255);">Reshape</text><title>reshape</title></g><g class="node-attribute" transform="translate(0,23)"><path d="M0,0h108.21875a0,0 0 0 1 0,0v15a5,5 0 0 1 -5,5h-98.21875a5,5 0 0 1 -5,-5v-15a0,0 0 0 1 0,0z" style="stroke: rgb(0, 0, 0); fill: rgb(255, 255, 255); stroke-width: 0;"/><text xml:space="preserve" x="6" y="14" style="font-family: -apple-system, BlinkMacSystemFont, &quot;Segoe WPC&quot;, &quot;Segoe UI&quot;, Ubuntu, &quot;Droid Sans&quot;, sans-serif, &quot;PingFang SC&quot;; font-size: 9px; font-weight: normal; text-rendering: geometricprecision;"><tspan>target_shape</tspan><tspan> = 28, 28, 1</tspan></text><line class="node" x1="0" x2="108.21875" y1="0" y2="0" style="stroke: rgb(51, 51, 51); fill: none; stroke-width: 1px;"/></g><path class="node border" d="M5,0h98.21875a5,5 0 0 1 5,5v33a5,5 0 0 1 -5,5h-98.21875a5,5 0 0 1 -5,-5v-33a5,5 0 0 1 5,-5z" style="stroke: rgb(51, 51, 51); fill: none; stroke-width: 1px;"/></g></g></g><g id="node-conv2d" class="node" transform="translate(74.4921875,172.5)" style="opacity: 1;"><g transform="translate(-74.4921875,-42.5)"><g><g class="node-item node-item-type node-item-type-layer" transform="translate(0,0)"><path d="M5,0h138.984375a5,5 0 0 1 5,5v18a0,0 0 0 1 0,0h-148.984375a0,0 0 0 1 0,0v-18a5,5 0 0 1 5,-5z" style="stroke: rgb(0, 0, 0); fill: rgb(51, 85, 136); stroke-width: 0;"/><text x="6" y="16" style="font-family: -apple-system, BlinkMacSystemFont, &quot;Segoe WPC&quot;, &quot;Segoe UI&quot;, Ubuntu, &quot;Droid Sans&quot;, sans-serif, &quot;PingFang SC&quot;; font-size: 11px; text-rendering: geometricprecision; fill: rgb(255, 255, 255);">Conv2D</text><title>conv2d</title></g><g class="node-attribute" transform="translate(0,23)"><path d="M0,0h148.984375a0,0 0 0 1 0,0v57a5,5 0 0 1 -5,5h-138.984375a5,5 0 0 1 -5,-5v-57a0,0 0 0 1 0,0z" style="stroke: rgb(0, 0, 0); fill: rgb(255, 255, 255); stroke-width: 0;"/><text xml:space="preserve" x="6" y="14" style="font-family: -apple-system, BlinkMacSystemFont, &quot;Segoe WPC&quot;, &quot;Segoe UI&quot;, Ubuntu, &quot;Droid Sans&quot;, sans-serif, &quot;PingFang SC&quot;; font-size: 9px; font-weight: normal; text-rendering: geometricprecision;"><tspan>activation</tspan><tspan> = relu</tspan></text><text xml:space="preserve" x="6" y="28" style="font-family: -apple-system, BlinkMacSystemFont, &quot;Segoe WPC&quot;, &quot;Segoe UI&quot;, Ubuntu, &quot;Droid Sans&quot;, sans-serif, &quot;PingFang SC&quot;; font-size: 9px; font-weight: normal; text-rendering: geometricprecision;"><tspan>batch_input_shape</tspan><tspan> = null, 28, 28, 1</tspan></text><text xml:space="preserve" x="6" y="42" style="font-family: -apple-system, BlinkMacSystemFont, &quot;Segoe WPC&quot;, &quot;Segoe UI&quot;, Ubuntu, &quot;Droid Sans&quot;, sans-serif, &quot;PingFang SC&quot;; font-size: 9px; font-weight: normal; text-rendering: geometricprecision;"><tspan>filters</tspan><tspan> = 32</tspan></text><text xml:space="preserve" x="6" y="56" style="font-family: -apple-system, BlinkMacSystemFont, &quot;Segoe WPC&quot;, &quot;Segoe UI&quot;, Ubuntu, &quot;Droid Sans&quot;, sans-serif, &quot;PingFang SC&quot;; font-size: 9px; font-weight: normal; text-rendering: geometricprecision;"><tspan>kernel_size</tspan><tspan> = 3, 3</tspan></text><line class="node" x1="0" x2="148.984375" y1="0" y2="0" style="stroke: rgb(51, 51, 51); fill: none; stroke-width: 1px;"/></g><path class="node border" d="M5,0h138.984375a5,5 0 0 1 5,5v75a5,5 0 0 1 -5,5h-138.984375a5,5 0 0 1 -5,-5v-75a5,5 0 0 1 5,-5z" style="stroke: rgb(51, 51, 51); fill: none; stroke-width: 1px;"/></g></g></g><g id="node-max_pooling2d" class="node" transform="translate(74.4921875,246.5)" style="opacity: 1;"><g transform="translate(-42.5703125,-11.5)"><g><g class="node-item node-item-type node-item-type-pool" transform="translate(0,0)"><path d="M5,0h75.140625a5,5 0 0 1 5,5v13a5,5 0 0 1 -5,5h-75.140625a5,5 0 0 1 -5,-5v-13a5,5 0 0 1 5,-5z" style="stroke: rgb(0, 0, 0); fill: rgb(51, 85, 51); stroke-width: 0;"/><text x="6" y="16" style="font-family: -apple-system, BlinkMacSystemFont, &quot;Segoe WPC&quot;, &quot;Segoe UI&quot;, Ubuntu, &quot;Droid Sans&quot;, sans-serif, &quot;PingFang SC&quot;; font-size: 11px; text-rendering: geometricprecision; fill: rgb(255, 255, 255);">MaxPooling2D</text><title>max_pooling2d</title></g><path class="node border" d="M5,0h75.140625a5,5 0 0 1 5,5v13a5,5 0 0 1 -5,5h-75.140625a5,5 0 0 1 -5,-5v-13a5,5 0 0 1 5,-5z" style="stroke: rgb(51, 51, 51); fill: none; stroke-width: 1px;"/></g></g></g><g id="node-flatten" class="node" transform="translate(74.4921875,289.5)" style="opacity: 1;"><g transform="translate(-23.5390625,-11.5)"><g><g class="node-item node-item-type node-item-type-shape" transform="translate(0,0)"><path d="M5,0h37.078125a5,5 0 0 1 5,5v13a5,5 0 0 1 -5,5h-37.078125a5,5 0 0 1 -5,-5v-13a5,5 0 0 1 5,-5z" style="stroke: rgb(0, 0, 0); fill: rgb(108, 79, 71); stroke-width: 0;"/><text x="6" y="16" style="font-family: -apple-system, BlinkMacSystemFont, &quot;Segoe WPC&quot;, &quot;Segoe UI&quot;, Ubuntu, &quot;Droid Sans&quot;, sans-serif, &quot;PingFang SC&quot;; font-size: 11px; text-rendering: geometricprecision; fill: rgb(255, 255, 255);">Flatten</text><title>flatten</title></g><path class="node border" d="M5,0h37.078125a5,5 0 0 1 5,5v13a5,5 0 0 1 -5,5h-37.078125a5,5 0 0 1 -5,-5v-13a5,5 0 0 1 5,-5z" style="stroke: rgb(51, 51, 51); fill: none; stroke-width: 1px;"/></g></g></g><g id="node-Dense_Layer_1" class="node" transform="translate(74.4921875,349.5)" style="opacity: 1;"><g transform="translate(-50,-28.5)"><g><g class="node-item node-item-type node-item-type-layer" transform="translate(0,0)"><path d="M5,0h90a5,5 0 0 1 5,5v18a0,0 0 0 1 0,0h-100a0,0 0 0 1 0,0v-18a5,5 0 0 1 5,-5z" style="stroke: rgb(0, 0, 0); fill: rgb(51, 85, 136); stroke-width: 0;"/><text x="6" y="16" style="font-family: -apple-system, BlinkMacSystemFont, &quot;Segoe WPC&quot;, &quot;Segoe UI&quot;, Ubuntu, &quot;Droid Sans&quot;, sans-serif, &quot;PingFang SC&quot;; font-size: 11px; text-rendering: geometricprecision; fill: rgb(255, 255, 255);">Dense</text><title>Dense_Layer_1</title></g><g class="node-attribute" transform="translate(0,23)"><path d="M0,0h100a0,0 0 0 1 0,0v29a5,5 0 0 1 -5,5h-90a5,5 0 0 1 -5,-5v-29a0,0 0 0 1 0,0z" style="stroke: rgb(0, 0, 0); fill: rgb(255, 255, 255); stroke-width: 0;"/><text xml:space="preserve" x="6" y="14" style="font-family: -apple-system, BlinkMacSystemFont, &quot;Segoe WPC&quot;, &quot;Segoe UI&quot;, Ubuntu, &quot;Droid Sans&quot;, sans-serif, &quot;PingFang SC&quot;; font-size: 9px; font-weight: normal; text-rendering: geometricprecision;"><tspan>activation</tspan><tspan> = relu</tspan></text><text xml:space="preserve" x="6" y="28" style="font-family: -apple-system, BlinkMacSystemFont, &quot;Segoe WPC&quot;, &quot;Segoe UI&quot;, Ubuntu, &quot;Droid Sans&quot;, sans-serif, &quot;PingFang SC&quot;; font-size: 9px; font-weight: normal; text-rendering: geometricprecision;"><tspan>units</tspan><tspan> = 100</tspan></text><line class="node" x1="0" x2="100" y1="0" y2="0" style="stroke: rgb(51, 51, 51); fill: none; stroke-width: 1px;"/></g><path class="node border" d="M5,0h90a5,5 0 0 1 5,5v47a5,5 0 0 1 -5,5h-90a5,5 0 0 1 -5,-5v-47a5,5 0 0 1 5,-5z" style="stroke: rgb(51, 51, 51); fill: none; stroke-width: 1px;"/></g></g></g><g id="node-Logit_Probs" class="node" transform="translate(74.4921875,419.5)" style="opacity: 1;"><g transform="translate(-50,-21.5)"><g><g class="node-item node-item-type node-item-type-layer" transform="translate(0,0)"><path d="M5,0h90a5,5 0 0 1 5,5v18a0,0 0 0 1 0,0h-100a0,0 0 0 1 0,0v-18a5,5 0 0 1 5,-5z" style="stroke: rgb(0, 0, 0); fill: rgb(51, 85, 136); stroke-width: 0;"/><text x="6" y="16" style="font-family: -apple-system, BlinkMacSystemFont, &quot;Segoe WPC&quot;, &quot;Segoe UI&quot;, Ubuntu, &quot;Droid Sans&quot;, sans-serif, &quot;PingFang SC&quot;; font-size: 11px; text-rendering: geometricprecision; fill: rgb(255, 255, 255);">Dense</text><title>Logit_Probs</title></g><g class="node-attribute" transform="translate(0,23)"><path d="M0,0h100a0,0 0 0 1 0,0v15a5,5 0 0 1 -5,5h-90a5,5 0 0 1 -5,-5v-15a0,0 0 0 1 0,0z" style="stroke: rgb(0, 0, 0); fill: rgb(255, 255, 255); stroke-width: 0;"/><text xml:space="preserve" x="6" y="14" style="font-family: -apple-system, BlinkMacSystemFont, &quot;Segoe WPC&quot;, &quot;Segoe UI&quot;, Ubuntu, &quot;Droid Sans&quot;, sans-serif, &quot;PingFang SC&quot;; font-size: 9px; font-weight: normal; text-rendering: geometricprecision;"><tspan>units</tspan><tspan> = 10</tspan></text><line class="node" x1="0" x2="100" y1="0" y2="0" style="stroke: rgb(51, 51, 51); fill: none; stroke-width: 1px;"/></g><path class="node border" d="M5,0h90a5,5 0 0 1 5,5v33a5,5 0 0 1 -5,5h-90a5,5 0 0 1 -5,-5v-33a5,5 0 0 1 5,-5z" style="stroke: rgb(51, 51, 51); fill: none; stroke-width: 1px;"/></g></g></g><g class="node graph-input" transform="translate(74.4921875,11.5)" style="opacity: 1;"><g transform="translate(-19.9296875,-11.5)"><g><g class="node-item graph-item-input" transform="translate(0,0)"><path d="M5,0h29.859375a5,5 0 0 1 5,5v13a5,5 0 0 1 -5,5h-29.859375a5,5 0 0 1 -5,-5v-13a5,5 0 0 1 5,-5z" style="stroke: rgb(0, 0, 0); fill: rgb(238, 238, 238); stroke-width: 0;"/><text x="6" y="16" style="font-family: -apple-system, BlinkMacSystemFont, &quot;Segoe WPC&quot;, &quot;Segoe UI&quot;, Ubuntu, &quot;Droid Sans&quot;, sans-serif, &quot;PingFang SC&quot;; font-size: 11px; text-rendering: geometricprecision;">Input</text><title>float32[?,784]</title></g><path class="node border" d="M5,0h29.859375a5,5 0 0 1 5,5v13a5,5 0 0 1 -5,5h-29.859375a5,5 0 0 1 -5,-5v-13a5,5 0 0 1 5,-5z" style="stroke: rgb(51, 51, 51); fill: none; stroke-width: 1px;"/></g></g></g><g class="node" transform="translate(74.4921875,472.5)" style="opacity: 1;"><g transform="translate(-35.484375,-11.5)"><g><g class="node-item graph-item-output" transform="translate(0,0)"><path d="M5,0h60.96875a5,5 0 0 1 5,5v13a5,5 0 0 1 -5,5h-60.96875a5,5 0 0 1 -5,-5v-13a5,5 0 0 1 5,-5z" style="stroke: rgb(0, 0, 0); fill: rgb(238, 238, 238); stroke-width: 0;"/><text x="6" y="16" style="font-family: -apple-system, BlinkMacSystemFont, &quot;Segoe WPC&quot;, &quot;Segoe UI&quot;, Ubuntu, &quot;Droid Sans&quot;, sans-serif, &quot;PingFang SC&quot;; font-size: 11px; text-rendering: geometricprecision;">Logit_Probs</text></g><path class="node border" d="M5,0h60.96875a5,5 0 0 1 5,5v13a5,5 0 0 1 -5,5h-60.96875a5,5 0 0 1 -5,-5v-13a5,5 0 0 1 5,-5z" style="stroke: rgb(51, 51, 51); fill: none; stroke-width: 1px;"/></g></g></g></g></g></svg>